<?xml version="1.0" encoding="utf-8"?>
<!-- Generator: Adobe Illustrator 21.0.0, SVG Export Plug-In . SVG Version: 6.00 Build 0)  -->
<svg version="1.1" id="图层_1" xmlns="http://www.w3.org/2000/svg" xmlns:xlink="http://www.w3.org/1999/xlink" x="0px" y="0px"
	 viewBox="0 0 200 200" style="enable-background:new 0 0 200 200;" xml:space="preserve">
<style type="text/css">
	.st0{fill:#FFFFFF;}
</style>
<path class="st0" d="M171.8,18.4c2.5,1.9,3.6,5.1,3,8.2L151,143c-2.6,12.5-17.6,17.6-27.2,9.3l-34.4-29.7L50.2,99.4
	C38.7,92.6,39.5,75.7,51.6,70l111.5-52.5C166,16.1,169.3,16.5,171.8,18.4L171.8,18.4z M105.8,114.7l28.9,24.9l16.9-82.3L105.8,114.7
	L105.8,114.7z M137.8,47.8L58.7,85.1l33.6,19.9C92.3,104.9,137.8,47.8,137.8,47.8z M54.4,109.8c3.3,3.2,3.4,8.5,0.2,11.8
	c0,0,0,0,0,0l-15.2,15.8c-3.2,3.3-8.5,3.4-11.8,0.2s-3.4-8.5-0.2-11.8l0,0L42.6,110C45.8,106.7,51.1,106.6,54.4,109.8
	C54.4,109.8,54.4,109.8,54.4,109.8L54.4,109.8z M88.6,129.5c3.3,3.2,3.4,8.5,0.2,11.8c0,0,0,0,0,0l-15.2,15.8
	c-3.2,3.3-8.5,3.4-11.8,0.2c-3.3-3.2-3.4-8.5-0.2-11.8l0,0l15.3-15.8C80.1,126.4,85.3,126.3,88.6,129.5L88.6,129.5z M119.1,153.2
	c3.3,3.2,3.4,8.5,0.2,11.8c0,0,0,0,0,0l-15.2,15.8c-3.2,3.3-8.5,3.4-11.8,0.2c-3.3-3.2-3.4-8.5-0.2-11.8l15.3-15.8
	C110.5,150.1,115.8,150,119.1,153.2L119.1,153.2z"/>
</svg>
