<?xml version="1.0" standalone="no"?><!DOCTYPE svg PUBLIC "-//W3C//DTD SVG 1.1//EN" "http://www.w3.org/Graphics/SVG/1.1/DTD/svg11.dtd"><svg t="1537609914513" class="icon" style="" viewBox="0 0 1024 1024" version="1.1" xmlns="http://www.w3.org/2000/svg" p-id="1502" xmlns:xlink="http://www.w3.org/1999/xlink" width="200" height="200"><defs><style type="text/css"></style></defs><path d="M879.701333 94.464a42.666667 42.666667 0 0 1 15.445334 42.112l-121.941334 595.626667c-13.098667 63.872-90.026667 90.069333-139.392 47.488l-176.085333-152.064-200.533333-118.741334c-58.88-34.901333-54.826667-121.472 7.125333-150.613333l570.837333-268.885333a42.666667 42.666667 0 0 1 44.544 5.077333z m-338.005333 492.885333l147.882667 127.744 86.314666-421.504-234.24 293.76z m164.053333-342.656l-405.077333 190.762667 171.861333 101.76 233.216-292.522667z m-427.434666 317.44a42.666667 42.666667 0 0 1 1.066666 60.330667L201.386667 703.317333a42.666667 42.666667 0 1 1-61.44-59.264L218.026667 563.2a42.666667 42.666667 0 0 1 60.330666-1.066667z m175.530666 101.077334a42.666667 42.666667 0 0 1 1.066667 60.330666l-77.994667 80.810667a42.666667 42.666667 0 1 1-61.44-59.264l78.08-80.810667a42.666667 42.666667 0 0 1 60.288-1.066666z m156.032 121.258666a42.666667 42.666667 0 0 1 1.109334 60.330667l-78.037334 80.810667a42.666667 42.666667 0 1 1-61.44-59.221334l78.08-80.853333a42.666667 42.666667 0 0 1 60.288-1.066667z" p-id="1503"></path></svg>